<?xml version="1.0" standalone="no"?>
<!DOCTYPE svg PUBLIC "-//W3C//DTD SVG 20010904//EN"
 "http://www.w3.org/TR/2001/REC-SVG-20010904/DTD/svg10.dtd">
<svg version="1.0" xmlns="http://www.w3.org/2000/svg"
 width="512.000000pt" height="512.000000pt" viewBox="0 0 512.000000 512.000000"
 preserveAspectRatio="xMidYMid meet">
<metadata>
Created by potrace 1.11, written by Peter Selinger 2001-2013
</metadata>
<g transform="translate(0.000000,512.000000) scale(0.100000,-0.100000)"
fill="#000000" stroke="none">
<path d="M2418 4385 c-1 -1 -32 -6 -68 -9 -203 -21 -451 -113 -650 -240 -72
-46 -70 -44 -157 -115 -203 -167 -375 -401 -465 -636 -49 -126 -82 -246 -94
-333 -2 -20 -8 -65 -12 -99 -9 -64 -8 -280 1 -343 3 -19 9 -60 12 -90 4 -30
12 -63 17 -73 8 -16 -7 -35 -90 -118 -117 -116 -225 -246 -309 -374 -62 -93
-175 -295 -166 -295 3 0 1 -6 -5 -12 -6 -7 -24 -49 -41 -93 -18 -44 -36 -89
-41 -100 -18 -42 -72 -229 -86 -300 -2 -11 -6 -31 -9 -45 -2 -14 -7 -41 -10
-60 -3 -19 -7 -46 -10 -60 -5 -28 -15 -138 -20 -213 l-3 -47 2347 2 2346 3 -1
40 c-5 216 -83 575 -164 760 -52 117 -139 288 -181 356 -46 73 -79 120 -184
258 -31 42 -83 97 -176 189 l-86 84 13 62 c40 190 38 436 -6 641 -37 176 -127
396 -214 524 -20 29 -36 55 -36 58 0 18 -173 210 -251 278 -82 72 -100 86
-192 146 -183 120 -410 209 -602 235 -22 3 -47 8 -55 11 -16 6 -346 14 -352 8z"/>
</g>
</svg>
